<?xml version="1.0" encoding="UTF-8"?>
<svg id="Layer_2" data-name="Layer 2" xmlns="http://www.w3.org/2000/svg" viewBox="0 0 199.78 62.85">
  <defs>
    <style>
      .cls-1 {
        font-family: CharlieDisplay-Bold, 'Charlie Display';
        font-size: 56.56px;
        font-weight: 700;
      }

      .cls-1, .cls-2 {
        fill: #253858;
      }

      .cls-3 {
        fill: #0079bf;
        fill-rule: evenodd;
      }
    </style>
  </defs>
  <g id="Layer_1-2" data-name="Layer 1">
    <g>
      <text class="cls-1" transform="translate(104.42 46.86)"><tspan x="0" y="0">a</tspan></text>
      <path id="Shape" class="cls-3" d="M35.29,6.81H4.76C2.14,6.81,0,8.95,0,11.57v30.55c0,2.62,2.14,4.76,4.76,4.76h30.55c2.62,0,4.76-2.14,4.76-4.76V11.57c-.02-2.65-2.14-4.76-4.79-4.76Zm-18.03,28.85c0,.87-.7,1.58-1.58,1.58h-6.71c-.87,0-1.58-.7-1.58-1.58V15.77c0-.87,.7-1.58,1.58-1.58h6.71c.87,0,1.58,.7,1.58,1.58v19.88Zm15.41-9.11c0,.87-.7,1.58-1.58,1.58h-6.71c-.87,0-1.58-.7-1.58-1.58V15.77c0-.87,.7-1.58,1.58-1.58h6.71c.87,0,1.58,.7,1.58,1.58v10.77Z"/>
      <text class="cls-1" transform="translate(46.74 46.9)"><tspan x="0" y="0">K</tspan></text>
      <path id="Path" class="cls-2" d="M94.29,46.86h-8.19V17.99h8.19v5.54c1.56-3.89,4.03-6.22,8.46-5.93v8.53c-5.76-.46-8.46,.97-8.46,5.59v15.14Z"/>
      <path id="Path-2" data-name="Path" class="cls-2" d="M147.46,47.1c-5.37,0-8.72-2.6-8.72-8.65V6.81h8.24v30.52c0,1.75,1.17,2.38,2.6,2.38,.44,0,.73,0,1.22-.05v7.12c-.46,.15-1.68,.32-3.33,.32Z"/>
      <path id="Path-3" data-name="Path" class="cls-2" d="M164.64,47.1c-5.37,0-8.72-2.6-8.72-8.65V6.81h8.24v30.52c0,1.75,1.17,2.38,2.6,2.38,.44,0,.73,0,1.22-.05v7.12c-.44,.15-1.68,.32-3.33,.32Z"/>
      <path id="Shape-2" data-name="Shape" class="cls-2" d="M171.91,32.4c0-8.92,5.15-15.04,14-15.04s13.88,6.1,13.88,15.04-5.08,15.14-13.88,15.14-14-6.27-14-15.14Zm8.02,0c0,4.35,1.82,7.8,5.98,7.8s5.86-3.45,5.86-7.8-1.77-7.68-5.86-7.68-5.98,3.33-5.98,7.68Z"/>
    </g>
  </g>
</svg>