<?xml version="1.0" encoding="UTF-8"?>
<svg id="Layer_2" data-name="Layer 2" xmlns="http://www.w3.org/2000/svg" viewBox="0 0 62.56 43.67">
  <defs>
    <style>
      .cls-1 {
        fill: #42546e;
      }
    </style>
  </defs>
  <g id="Layer_1-2" data-name="Layer 1">
    <g>
      <path class="cls-1" d="M59.56,6H21.44c-1.66,0-3-1.34-3-3s1.34-3,3-3H59.56c1.66,0,3,1.34,3,3s-1.34,3-3,3Z"/>
      <path class="cls-1" d="M49.94,18.33H21.44c-1.66,0-3-1.34-3-3s1.34-3,3-3h28.5c1.66,0,3,1.34,3,3s-1.34,3-3,3Z"/>
      <path class="cls-1" d="M59.56,30.98H21.44c-1.66,0-3-1.34-3-3s1.34-3,3-3H59.56c1.66,0,3,1.34,3,3s-1.34,3-3,3Z"/>
      <path class="cls-1" d="M49.94,43.67H21.44c-1.66,0-3-1.34-3-3s1.34-3,3-3h28.5c1.66,0,3,1.34,3,3s-1.34,3-3,3Z"/>
      <circle class="cls-1" cx="6" cy="6" r="6"/>
      <circle class="cls-1" cx="6" cy="30.98" r="6"/>
    </g>
  </g>
</svg>