<?xml version="1.0" encoding="UTF-8"?>
<svg id="Layer_2" data-name="Layer 2" xmlns="http://www.w3.org/2000/svg" viewBox="0 0 20.41 15.8">
  <defs>
    <style>
      .cls-1 {
        fill: #435470;
      }
    </style>
  </defs>
  <g id="Layer_1-2" data-name="Layer 1">
    <path class="cls-1" d="M18.17,0H2.24C1,0,0,1,0,2.24V13.56c0,1.24,1,2.24,2.24,2.24h15.92c1.24,0,2.24-1,2.24-2.24V2.24c0-1.24-1-2.24-2.24-2.24ZM8.15,13.95H3.36c-.77,0-1.4-.63-1.4-1.4s.63-1.4,1.4-1.4h4.79c.77,0,1.4,.63,1.4,1.4s-.63,1.4-1.4,1.4Zm8.89,0c-.77,0-1.4-.62-1.4-1.4s.62-1.4,1.4-1.4,1.4,.62,1.4,1.4-.62,1.4-1.4,1.4Zm1.03-4.74H2.33c-.2,0-.36-.16-.36-.36V2.37c0-.2,.16-.36,.36-.36h15.75c.2,0,.36,.16,.36,.36v6.48c0,.2-.16,.36-.36,.36Z"/>
  </g>
</svg>