<?xml version="1.0" encoding="UTF-8"?>
<svg id="Layer_2" data-name="Layer 2" xmlns="http://www.w3.org/2000/svg" viewBox="0 0 199.78 40.73">
  <defs>
    <style>
      .cls-1 {
        fill: #0079bf;
        fill-rule: evenodd;
      }

      .cls-2 {
        fill: #253858;
      }
    </style>
  </defs>
  <g id="Layer_1-2" data-name="Layer 1">
    <g>
      <path class="cls-2" d="M125.12,40.05v-5.15c-.87,1.92-2.07,3.36-3.62,4.3-1.55,.94-3.3,1.41-5.26,1.41-1.77,0-3.31-.38-4.61-1.13s-2.39-1.8-3.25-3.14c-.87-1.34-1.51-2.93-1.92-4.78s-.62-3.85-.62-6c0-2.04,.22-3.96,.65-5.77s1.09-3.4,1.98-4.78c.89-1.38,2.02-2.46,3.39-3.25,1.38-.79,3.01-1.19,4.89-1.19s3.65,.5,5.06,1.5c1.41,1,2.52,2.37,3.31,4.1v-5.03h8.43v28.9h-8.43Zm-10.97-14.48c0,2.6,.46,4.54,1.39,5.83,.92,1.28,2.25,1.92,3.99,1.92,1.47,0,2.77-.53,3.9-1.58s1.7-2.72,1.7-4.98v-2.32c0-2.3-.51-3.98-1.53-5.03-1.02-1.06-2.26-1.58-3.73-1.58-1.89,0-3.31,.67-4.27,2.01-.96,1.34-1.44,3.25-1.44,5.74Z"/>
      <path id="Shape" class="cls-1" d="M35.29,0H4.76C2.14,0,0,2.14,0,4.76v30.55c0,2.62,2.14,4.76,4.76,4.76h30.55c2.62,0,4.76-2.14,4.76-4.76V4.76c-.02-2.65-2.14-4.76-4.79-4.76ZM17.25,28.85c0,.87-.7,1.58-1.58,1.58h-6.71c-.87,0-1.58-.7-1.58-1.58V8.97c0-.87,.7-1.58,1.58-1.58h6.71c.87,0,1.58,.7,1.58,1.58V28.85Zm15.41-9.11c0,.87-.7,1.58-1.58,1.58h-6.71c-.87,0-1.58-.7-1.58-1.58V8.97c0-.87,.7-1.58,1.58-1.58h6.71c.87,0,1.58,.7,1.58,1.58v10.77Z"/>
      <path class="cls-2" d="M72.64,40.09l-12.95-17.48v17.48h-9.11V2.93h9.11V20.58L72.53,2.93h10.52l-14.42,18.38,14.76,18.78h-10.75Z"/>
      <path id="Path" class="cls-2" d="M94.29,40.05h-8.19V11.18h8.19v5.54c1.56-3.89,4.03-6.22,8.46-5.93v8.53c-5.76-.46-8.46,.97-8.46,5.59v15.14Z"/>
      <path id="Path-2" data-name="Path" class="cls-2" d="M147.46,40.29c-5.37,0-8.72-2.6-8.72-8.65V0h8.24V30.52c0,1.75,1.17,2.38,2.6,2.38,.44,0,.73,0,1.22-.05v7.12c-.46,.15-1.68,.32-3.33,.32Z"/>
      <path id="Path-3" data-name="Path" class="cls-2" d="M164.64,40.29c-5.37,0-8.72-2.6-8.72-8.65V0h8.24V30.52c0,1.75,1.17,2.38,2.6,2.38,.44,0,.73,0,1.22-.05v7.12c-.44,.15-1.68,.32-3.33,.32Z"/>
      <path id="Shape-2" data-name="Shape" class="cls-2" d="M171.91,25.59c0-8.92,5.15-15.04,14-15.04s13.88,6.1,13.88,15.04-5.08,15.14-13.88,15.14-14-6.27-14-15.14Zm8.02,0c0,4.35,1.82,7.8,5.98,7.8s5.86-3.45,5.86-7.8-1.77-7.68-5.86-7.68-5.98,3.33-5.98,7.68Z"/>
    </g>
  </g>
</svg>