<?xml version="1.0" encoding="UTF-8"?>
<svg id="Layer_2" data-name="Layer 2" xmlns="http://www.w3.org/2000/svg" xmlns:xlink="http://www.w3.org/1999/xlink" viewBox="0 0 111.07 22.68">
  <defs>
    <style>
      .cls-1 {
        fill: url(#linear-gradient);
      }

      .cls-2 {
        fill: #253858;
      }
    </style>
    <linearGradient id="linear-gradient" x1="-862.06" y1="521.17" x2="-862.06" y2="522.17" gradientTransform="translate(19191.93 11636.86) scale(22.25 -22.29)" gradientUnits="userSpaceOnUse">
      <stop offset="0" stop-color="#0052cc"/>
      <stop offset="1" stop-color="#2684ff"/>
    </linearGradient>
  </defs>
  <g id="Layer_1-2" data-name="Layer 1">
    <g>
      <path class="cls-1" d="M19.61,0H2.64C1.18,0,0,1.18,0,2.64V19.64c0,1.46,1.18,2.64,2.64,2.64H19.61c1.46,0,2.64-1.18,2.64-2.64V2.64c0-1.46-1.18-2.64-2.64-2.64ZM9.57,16.04c0,.5-.39,.89-.89,.89h-3.71c-.5,0-.89-.39-.89-.89V5c0-.5,.39-.89,.89-.89h3.71c.5,0,.89,.39,.89,.89v11.04Zm8.57-5.07c0,.5-.39,.89-.86,.89h-3.75c-.5,0-.89-.39-.89-.89V5c0-.5,.39-.89,.89-.89h3.71c.5,0,.89,.39,.89,.89v5.96Z"/>
      <g>
        <path class="cls-2" d="M69.59,22.21v-2.87c-.48,1.07-1.16,1.87-2.02,2.39-.86,.52-1.84,.79-2.93,.79-.99,0-1.84-.21-2.57-.63-.72-.42-1.33-1-1.81-1.75-.48-.75-.84-1.63-1.07-2.66-.23-1.03-.35-2.14-.35-3.34,0-1.13,.12-2.2,.36-3.21s.61-1.89,1.1-2.66c.49-.77,1.12-1.37,1.89-1.81,.77-.44,1.67-.66,2.72-.66s2.03,.28,2.82,.83c.79,.56,1.4,1.32,1.84,2.28v-2.8h4.69V22.21h-4.69Zm-6.11-8.06c0,1.45,.26,2.53,.77,3.24,.51,.71,1.25,1.07,2.22,1.07,.82,0,1.54-.29,2.17-.88s.95-1.51,.95-2.77v-1.29c0-1.28-.28-2.21-.85-2.8-.57-.59-1.26-.88-2.08-.88-1.05,0-1.84,.37-2.38,1.12-.54,.75-.8,1.81-.8,3.2Z"/>
        <path class="cls-2" d="M40.42,22.29l-7.17-9.68v9.68h-5.04V1.7h5.04V11.48L40.35,1.7h5.83l-7.99,10.18,8.18,10.4h-5.95Z"/>
        <path class="cls-2" d="M52.43,22.29h-4.54V6.21h4.54v3.07c.86-2.18,2.25-3.46,4.71-3.29v4.75c-3.21-.25-4.71,.54-4.71,3.11v8.43Z"/>
        <path class="cls-2" d="M82,22.43c-3,0-4.86-1.43-4.86-4.82V0h4.57V16.96c0,.96,.64,1.32,1.43,1.32,.21,0,.46,0,.68-.04v3.96c-.61,.14-1.21,.21-1.82,.21Z"/>
        <path class="cls-2" d="M91.57,22.43c-3,0-4.86-1.43-4.86-4.82V0h4.57V16.96c0,.96,.64,1.32,1.43,1.32,.21,0,.46,0,.68-.04v3.96c-.61,.14-1.21,.21-1.82,.21Z"/>
        <path class="cls-2" d="M95.57,14.25c0-4.96,2.86-8.36,7.79-8.36s7.71,3.39,7.71,8.36-2.82,8.43-7.71,8.43-7.79-3.5-7.79-8.43Zm4.46,0c0,2.43,1,4.32,3.32,4.32s3.25-1.93,3.25-4.32-1-4.29-3.25-4.29-3.32,1.86-3.32,4.29Z"/>
      </g>
    </g>
  </g>
</svg>