<?xml version="1.0" encoding="UTF-8"?>
<svg id="Layer_2" data-name="Layer 2" xmlns="http://www.w3.org/2000/svg" viewBox="0 0 91.92 89.43">
  <defs>
    <style>
      .cls-1 {
        fill: #455470;
      }
    </style>
  </defs>
  <g id="Layer_1-2" data-name="Layer 1">
    <path class="cls-1" d="M63.72,43.61c5.15-4.98,8.19-12.12,7.64-19.99C70.5,11.54,61.01,1.57,48.99,.18c-15.38-1.79-28.49,10.25-28.49,25.28,0,7.11,2.93,13.51,7.65,18.1-5.18,2.18-10.06,5.31-14.4,9.35C5.14,60.91,0,71.28,0,80.64H0c0,6.08,4.92,8.79,11,8.79H80.92c6.08,0,11-2.71,11-8.79h0c0-13.93-11.61-29.95-28.21-37.03ZM31.5,25.46c0-7.98,6.47-14.46,14.46-14.46s14.46,6.47,14.46,14.46-6.47,14.46-14.46,14.46-14.46-6.47-14.46-14.46ZM12.16,80.64c-.66,0-1.16-.56-1.11-1.22,.95-12.52,16.22-28.64,34.91-28.64s33.95,16.28,34.91,28.64c.05,.65-.45,1.22-1.11,1.22H12.16Z"/>
  </g>
</svg>